<svg xmlns="http://www.w3.org/2000/svg" width="360" height="132" viewBox="0 0 360 132" fill="none" font-family="Microsoft YaHei, PingFang SC, Noto Sans CJK SC, sans-serif" font-size="11" text-anchor="middle">
  <rect width="360" height="132" rx="18" fill="#1C1C1E"/>

  <!-- 耳机: in use (lit) -->
  <g transform="translate(18 18)">
    <rect width="96" height="96" rx="14" fill="#0E3A50"/>
    <g transform="scale(0.6667)">
      <path d="M40 86V66a32 32 0 0 1 64 0v20" stroke="#FFFFFF" stroke-width="7" stroke-linecap="round"/>
      <rect x="29" y="72" width="22" height="34" rx="8" fill="#4FC3F7"/>
      <rect x="93" y="72" width="22" height="34" rx="8" fill="#4FC3F7"/>
    </g>
    <text x="48" y="88" fill="#FFFFFF">耳机</text>
  </g>

  <!-- 音箱: not in use (dim) -->
  <g transform="translate(132 18)">
    <rect width="96" height="96" rx="14" fill="#000000"/>
    <g transform="scale(0.6667)">
      <rect x="47" y="28" width="50" height="78" rx="9" stroke="#5C5C5C" stroke-width="6"/>
      <circle cx="72" cy="47" r="7" fill="#5C5C5C"/>
      <circle cx="72" cy="80" r="14" stroke="#5C5C5C" stroke-width="6"/>
      <circle cx="72" cy="80" r="3.5" fill="#5C5C5C"/>
    </g>
    <text x="48" y="88" fill="#8A8A8A">音箱</text>
  </g>

  <!-- 声音设置 -->
  <g transform="translate(246 18)">
    <rect width="96" height="96" rx="14" fill="#000000"/>
    <g transform="scale(0.6667)">
      <path d="M48 32v72M72 32v72M96 32v72" stroke="#FFFFFF" stroke-opacity="0.45" stroke-width="5" stroke-linecap="round"/>
      <g fill="#FFFFFF" stroke="#000000" stroke-width="4">
        <circle cx="48" cy="80" r="10"/>
        <circle cx="72" cy="50" r="10"/>
        <circle cx="96" cy="66" r="10"/>
      </g>
    </g>
    <text x="48" y="88" fill="#FFFFFF">声音设置</text>
  </g>
</svg>
